Topmarks-Bold.ufo
<glyph name="hyphen" format="1">
  <advance width="1063.0"/>
  <unicode hex="002D"/>
  <outline>
    <contour>
      <point x="142" y="606" type="line"/>
      <point x="142" y="803" type="line"/>
      <point x="921" y="803" type="line"/>
      <point x="921" y="606" type="line"/>
    </contour>
  </outline>
</glyph>
<glyph name="zero" format="1">
  <advance width="1282"/>
  <unicode hex="0030"/>
  <outline>
    <contour>
      <point x="640" y="-24" type="curve" smooth="yes"/>
      <point x="293.0" y="-24.0"/>
      <point x="107.0" y="312.098360656"/>
      <point x="107" y="780" type="curve" smooth="yes"/>
      <point x="107.0" y="1254.50928382"/>
      <point x="293.0" y="1584.0"/>
      <point x="640" y="1584" type="curve" smooth="yes"/>
      <point x="989.0" y="1584.0"/>
      <point x="1175.0" y="1254.50928382"/>
      <point x="1175" y="780" type="curve" smooth="yes"/>
      <point x="1175.0" y="312.098360656"/>
      <point x="989.0" y="-24.0"/>
    </contour>
    <contour>
      <point x="639" y="184" type="curve" smooth="yes"/>
      <point x="834.0" y="184.0"/>
      <point x="937.0" y="435.044684129"/>
      <point x="937" y="783" type="curve" smooth="yes"/>
      <point x="937.0" y="1137.92633517"/>
      <point x="834.0" y="1376.0"/>
      <point x="639" y="1376" type="curve" smooth="yes"/>
      <point x="441.0" y="1376.0"/>
      <point x="345.0" y="1137.92633517"/>
      <point x="345" y="783" type="curve" smooth="yes"/>
      <point x="345.0" y="435.044684129"/>
      <point x="441.0" y="184.0"/>
    </contour>
  </outline>
</glyph>
<glyph name="one" format="1">
  <advance width="842.0"/>
  <unicode hex="0031"/>
  <outline>
    <contour>
      <point x="296" y="0" type="line"/>
      <point x="296" y="1560" type="line"/>
      <point x="546" y="1560" type="line"/>
      <point x="546" y="0" type="line"/>
    </contour>
  </outline>
</glyph>
<glyph name="two" format="1">
  <advance width="1282"/>
  <unicode hex="0032"/>
  <outline>
    <contour>
      <point x="627" y="1584" type="curve" smooth="yes"/>
      <point x="858" y="1584"/>
      <point x="1087" y="1440"/>
      <point x="1087" y="1166" type="curve" smooth="yes"/>
      <point x="1087" y="977"/>
      <point x="970" y="806"/>
      <point x="792" y="562" type="curve" smooth="yes"/>
      <point x="529" y="200" type="line"/>
      <point x="1074" y="200" type="line"/>
      <point x="1074" y="0" type="line"/>
      <point x="222" y="0" type="line"/>
      <point x="222" y="192" type="line"/>
      <point x="626" y="713" type="line" smooth="yes"/>
      <point x="784" y="917"/>
      <point x="838" y="1044"/>
      <point x="838" y="1164" type="curve" smooth="yes"/>
      <point x="838" y="1292"/>
      <point x="743" y="1376"/>
      <point x="627" y="1376" type="curve" smooth="yes"/>
      <point x="504" y="1376"/>
      <point x="407" y="1319"/>
      <point x="317" y="1216" type="curve"/>
      <point x="161" y="1350" type="line"/>
      <point x="275" y="1508"/>
      <point x="462" y="1584"/>
    </contour>
  </outline>
</glyph>
<glyph name="three" format="1">
  <advance width="1282"/>
  <unicode hex="0033"/>
  <outline>
    <contour>
      <point x="627" y="-24" type="curve" smooth="yes"/>
      <point x="446" y="-24"/>
      <point x="320" y="17"/>
      <point x="184" y="112" type="curve"/>
      <point x="276" y="288" type="line"/>
      <point x="396" y="210"/>
      <point x="508" y="184"/>
      <point x="623" y="184" type="curve" smooth="yes"/>
      <point x="767.0" y="184.0"/>
      <point x="867.0" y="289.093495935"/>
      <point x="867" y="435" type="curve" smooth="yes"/>
      <point x="867.0" y="667.038167939"/>
      <point x="714.0" y="704"/>
      <point x="540" y="704" type="curve" smooth="yes"/>
      <point x="435" y="704" type="line"/>
      <point x="435" y="900" type="line"/>
      <point x="526" y="900" type="line" smooth="yes"/>
      <point x="645.0" y="900"/>
      <point x="823.0" y="926.784482759"/>
      <point x="823" y="1139" type="curve" smooth="yes"/>
      <point x="823" y="1303"/>
      <point x="712" y="1376"/>
      <point x="597" y="1376" type="curve" smooth="yes"/>
      <point x="498" y="1376"/>
      <point x="367" y="1346"/>
      <point x="283" y="1264" type="curve"/>
      <point x="171" y="1421" type="line"/>
      <point x="300" y="1541"/>
      <point x="447" y="1584"/>
      <point x="602" y="1584" type="curve" smooth="yes"/>
      <point x="836" y="1584"/>
      <point x="1060" y="1454"/>
      <point x="1060" y="1169" type="curve" smooth="yes"/>
      <point x="1060.0" y="956.742690058"/>
      <point x="926.958915312" y="846.988072187"/>
      <point x="834" y="820" type="curve"/>
      <point x="931.018616972" y="800.996353377"/>
      <point x="1103.0" y="701.868766404"/>
      <point x="1103" y="432" type="curve" smooth="yes"/>
      <point x="1103.0" y="140.807095344"/>
      <point x="884.0" y="-24.0"/>
    </contour>
  </outline>
</glyph>
<glyph name="four" format="1">
  <advance width="1282"/>
  <unicode hex="0034"/>
  <outline>
    <contour>
      <point x="982" y="868" type="line"/>
      <point x="982" y="518" type="line"/>
      <point x="1179" y="518" type="line"/>
      <point x="1179" y="327" type="line"/>
      <point x="982" y="327" type="line"/>
      <point x="982" y="0" type="line"/>
      <point x="772" y="0" type="line"/>
      <point x="772" y="327" type="line"/>
      <point x="154" y="327" type="line"/>
      <point x="154" y="504" type="line"/>
      <point x="556" y="1560" type="line"/>
      <point x="779" y="1560" type="line"/>
      <point x="415" y="518" type="line"/>
      <point x="772" y="518" type="line"/>
      <point x="772" y="868" type="line"/>
    </contour>
  </outline>
</glyph>
<glyph name="five" format="1">
  <advance width="1282"/>
  <unicode hex="0035"/>
  <outline>
    <contour>
      <point x="657" y="-24" type="curve" smooth="yes"/>
      <point x="484" y="-24"/>
      <point x="358" y="29"/>
      <point x="232" y="133" type="curve"/>
      <point x="322" y="322" type="line"/>
      <point x="413" y="240"/>
      <point x="506" y="184"/>
      <point x="642" y="184" type="curve" smooth="yes"/>
      <point x="799.0" y="184.0"/>
      <point x="899.0" y="327.072727273"/>
      <point x="899" y="489" type="curve" smooth="yes"/>
      <point x="899.0" y="688.708029197"/>
      <point x="793.004086539" y="790.999927672"/>
      <point x="680" y="793" type="curve"/>
      <point x="607" y="793"/>
      <point x="542" y="777"/>
      <point x="475" y="704" type="curve"/>
      <point x="300" y="704" type="line"/>
      <point x="300" y="1560" type="line"/>
      <point x="1032" y="1560" type="line"/>
      <point x="1032" y="1361" type="line"/>
      <point x="522" y="1361" type="line"/>
      <point x="508" y="911" type="line"/>
      <point x="550" y="945"/>
      <point x="612" y="989"/>
      <point x="735" y="989" type="curve" smooth="yes"/>
      <point x="924.0" y="989.0"/>
      <point x="1141.0" y="858.030237581"/>
      <point x="1141" y="496" type="curve" smooth="yes"/>
      <point x="1141.0" y="147.918367347"/>
      <point x="907.0" y="-24.0"/>
    </contour>
  </outline>
</glyph>
<glyph name="six" format="1">
  <advance width="1282"/>
  <unicode hex="0036"/>
  <outline>
    <contour>
      <point x="678" y="180" type="curve" smooth="yes"/>
      <point x="805.0" y="180.0"/>
      <point x="933.0" y="285.47985348"/>
      <point x="933" y="493" type="curve" smooth="yes"/>
      <point x="933.0" y="716.703180212"/>
      <point x="814.0" y="816.0"/>
      <point x="685" y="816" type="curve" smooth="yes"/>
      <point x="558.0" y="816.0"/>
      <point x="421.0" y="721.185053381"/>
      <point x="421" y="495" type="curve" smooth="yes"/>
      <point x="421.0" y="286.527272727"/>
      <point x="550.0" y="180.0"/>
    </contour>
    <contour>
      <point x="685" y="-24" type="curve" smooth="yes"/>
      <point x="439.0" y="-24.0"/>
      <point x="174.0" y="145.265597148"/>
      <point x="174" y="577" type="curve" smooth="yes"/>
      <point x="174.0" y="998.822429907"/>
      <point x="340.991180128" y="1409.38689519"/>
      <point x="900" y="1580" type="curve"/>
      <point x="976" y="1378" type="line"/>
      <point x="685.596049496" y="1301.89413711"/>
      <point x="516.290378596" y="1158.06070355"/>
      <point x="451" y="902" type="curve"/>
      <point x="531.437071673" y="977.213885201"/>
      <point x="626.0" y="1019"/>
      <point x="725" y="1019" type="curve" smooth="yes"/>
      <point x="729" y="1019" type="line" smooth="yes"/>
      <point x="947.010798483" y="1019"/>
      <point x="1166.0" y="834.562632696"/>
      <point x="1166" y="508" type="curve" smooth="yes"/>
      <point x="1166.0" y="153.333333333"/>
      <point x="915.0" y="-24.0"/>
    </contour>
  </outline>
</glyph>
<glyph name="seven" format="1">
  <advance width="1282"/>
  <unicode hex="0037"/>
  <outline>
    <contour>
      <point x="388" y="0" type="line"/>
      <point x="857" y="1257" type="line"/>
      <point x="200" y="1257" type="line"/>
      <point x="200" y="1456" type="line"/>
      <point x="1108" y="1456" type="line"/>
      <point x="1108" y="1275" type="line"/>
      <point x="646" y="0" type="line"/>
    </contour>
  </outline>
</glyph>
<glyph name="eight" format="1">
  <advance width="1282"/>
  <unicode hex="0038"/>
  <outline>
    <contour>
      <point x="206" y="1197" type="curve" smooth="yes"/>
      <point x="206.0" y="1451.19571046"/>
      <point x="390.0" y="1584.0"/>
      <point x="642" y="1584" type="curve" smooth="yes"/>
      <point x="932.0" y="1584.0"/>
      <point x="1077.0" y="1402.43163539"/>
      <point x="1077" y="1197" type="curve" smooth="yes"/>
      <point x="1077.0" y="1057.52023121"/>
      <point x="988.529699597" y="925.348826564"/>
      <point x="824" y="817" type="curve"/>
      <point x="1016.54565693" y="703.268368447"/>
      <point x="1108.0" y="553.196078431"/>
      <point x="1108" y="383" type="curve" smooth="yes"/>
      <point x="1108.0" y="170.323607427"/>
      <point x="983.0" y="-24.0"/>
      <point x="642" y="-24" type="curve" smooth="yes"/>
      <point x="321.0" y="-24.0"/>
      <point x="176.0" y="147.421875"/>
      <point x="176" y="390" type="curve" smooth="yes"/>
      <point x="176.0" y="555.467532468"/>
      <point x="234.538924493" y="674.324376353"/>
      <point x="445" y="801" type="curve"/>
      <point x="333.742879616" y="861.138983991"/>
      <point x="206.0" y="977.121546961"/>
    </contour>
    <contour>
      <point x="633" y="705" type="curve"/>
      <point x="488.533957746" y="611.346151918"/>
      <point x="417.0" y="493.606896552"/>
      <point x="417" y="389" type="curve" smooth="yes"/>
      <point x="417.0" y="264.036649215"/>
      <point x="494.0" y="168.0"/>
      <point x="644" y="168" type="curve" smooth="yes"/>
      <point x="811.0" y="168.0"/>
      <point x="879.0" y="264.244680851"/>
      <point x="879" y="386" type="curve" smooth="yes"/>
      <point x="879.0" y="499.228668942"/>
      <point x="847.370573015" y="585.351308085"/>
    </contour>
    <contour>
      <point x="647" y="911" type="curve"/>
      <point x="826.620245465" y="1016.36383114"/>
      <point x="853.0" y="1106.02996255"/>
      <point x="853" y="1212" type="curve" smooth="yes"/>
      <point x="853.0" y="1338.63529412"/>
      <point x="759.0" y="1396.0"/>
      <point x="646" y="1396" type="curve" smooth="yes"/>
      <point x="524.0" y="1396.0"/>
      <point x="437.0" y="1329.97647059"/>
      <point x="437" y="1212" type="curve" smooth="yes"/>
      <point x="437.0" y="1063.19101124"/>
      <point x="504.563185953" y="988.236863955"/>
    </contour>
  </outline>
</glyph>
<glyph name="nine" format="1">
  <advance width="1282"/>
  <unicode hex="0039"/>
  <outline>
    <contour>
      <point x="1047" y="0" type="line"/>
      <point x="828" y="0" type="line"/>
      <point x="828" y="651" type="line"/>
      <point x="758" y="595"/>
      <point x="660" y="562"/>
      <point x="568" y="562" type="curve" smooth="yes"/>
      <point x="323.0" y="562.0"/>
      <point x="130.0" y="756.0"/>
      <point x="130" y="1047" type="curve" smooth="yes"/>
      <point x="130.0" y="1367.95357834"/>
      <point x="363.0" y="1584"/>
      <point x="621" y="1584" type="curve" smooth="yes"/>
      <point x="645" y="1584" type="line" smooth="yes"/>
      <point x="843" y="1584"/>
      <point x="985" y="1490"/>
      <point x="1047" y="1453" type="curve"/>
    </contour>
    <contour>
      <point x="718" y="754"/>
      <point x="829" y="848"/>
      <point x="829" y="1057" type="curve" smooth="yes"/>
      <point x="829" y="1339" type="line"/>
      <point x="792" y="1364"/>
      <point x="737" y="1396"/>
      <point x="653" y="1396" type="curve" smooth="yes"/>
      <point x="460.0" y="1396.0"/>
      <point x="367.0" y="1257.875"/>
      <point x="367" y="1056" type="curve" smooth="yes"/>
      <point x="367.0" y="873.877862595"/>
      <point x="450.0" y="754.0"/>
      <point x="587" y="754" type="curve" smooth="yes"/>
    </contour>
  </outline>
</glyph>
<glyph name="less" format="1">
  <advance width="1124"/>
  <unicode hex="003C"/>
  <outline>
    <contour>
      <point x="1034" y="184" type="line"/>
      <point x="85" y="618" type="line"/>
      <point x="85" y="745" type="line"/>
      <point x="1038" y="1198" type="line"/>
      <point x="1038" y="997" type="line"/>
      <point x="403" y="685" type="line"/>
      <point x="1034" y="386" type="line"/>
    </contour>
  </outline>
</glyph>
<glyph name="equal" format="1">
  <advance width="1210"/>
  <unicode hex="003D"/>
  <outline>
    <contour>
      <point x="193" y="411" type="line"/>
      <point x="193" y="581" type="line"/>
      <point x="1018" y="581" type="line"/>
      <point x="1018" y="411" type="line"/>
    </contour>
    <contour>
      <point x="192" y="814" type="line"/>
      <point x="192" y="987" type="line"/>
      <point x="1018" y="987" type="line"/>
      <point x="1018" y="814" type="line"/>
    </contour>
  </outline>
</glyph>
<glyph name="greater" format="1">
  <advance width="1123"/>
  <unicode hex="003E"/>
  <outline>
    <contour>
      <point x="92" y="1192" type="line"/>
      <point x="1041" y="758" type="line"/>
      <point x="1041" y="631" type="line"/>
      <point x="88" y="178" type="line"/>
      <point x="88" y="379" type="line"/>
      <point x="723" y="691" type="line"/>
      <point x="92" y="990" type="line"/>
    </contour>
  </outline>
</glyph>
<glyph name="at" format="1">
  <advance width="1943.0"/>
  <unicode hex="0040"/>
  <outline>
    <contour>
      <point x="720" y="535" type="curve" smooth="yes"/>
      <point x="720" y="709"/>
      <point x="817" y="900"/>
      <point x="1025" y="900" type="curve" smooth="yes"/>
      <point x="1079" y="900"/>
      <point x="1123" y="885"/>
      <point x="1154" y="874" type="curve"/>
      <point x="1154" y="573" type="line" smooth="yes"/>
      <point x="1154" y="395"/>
      <point x="1091" y="260"/>
      <point x="935" y="260" type="curve" smooth="yes"/>
      <point x="787" y="260"/>
      <point x="720" y="391"/>
    </contour>
    <contour>
      <point x="1190" y="-263"/>
      <point x="1283" y="-224"/>
      <point x="1327" y="-191" type="curve"/>
      <point x="1306" y="-42" type="line"/>
      <point x="1268" y="-60"/>
      <point x="1191" y="-95"/>
      <point x="1022" y="-95" type="curve" smooth="yes"/>
      <point x="659" y="-95"/>
      <point x="312" y="101"/>
      <point x="312" y="555" type="curve" smooth="yes"/>
      <point x="312" y="955"/>
      <point x="563" y="1285"/>
      <point x="1002" y="1285" type="curve" smooth="yes"/>
      <point x="1490" y="1285"/>
      <point x="1652" y="912"/>
      <point x="1652" y="608" type="curve" smooth="yes"/>
      <point x="1652" y="407"/>
      <point x="1604" y="260"/>
      <point x="1467" y="260" type="curve" smooth="yes"/>
      <point x="1424" y="260"/>
      <point x="1384" y="282"/>
      <point x="1384" y="361" type="curve" smooth="yes"/>
      <point x="1384" y="1026" type="line"/>
      <point x="1304" y="1068"/>
      <point x="1186" y="1102"/>
      <point x="1055" y="1102" type="curve" smooth="yes"/>
      <point x="666" y="1102"/>
      <point x="496" y="812"/>
      <point x="496" y="545" type="curve" smooth="yes"/>
      <point x="496" y="307"/>
      <point x="643" y="88"/>
      <point x="925" y="88" type="curve" smooth="yes"/>
      <point x="1068" y="88"/>
      <point x="1156" y="151"/>
      <point x="1199" y="243" type="curve"/>
      <point x="1241" y="126"/>
      <point x="1329" y="78"/>
      <point x="1444" y="78" type="curve" smooth="yes"/>
      <point x="1657" y="78"/>
      <point x="1843" y="247"/>
      <point x="1843" y="609" type="curve" smooth="yes"/>
      <point x="1843" y="1200"/>
      <point x="1396" y="1456"/>
      <point x="1017" y="1456" type="curve" smooth="yes"/>
      <point x="661" y="1456"/>
      <point x="125" y="1223"/>
      <point x="125" y="584" type="curve" smooth="yes"/>
      <point x="125" y="-70"/>
      <point x="654" y="-263"/>
      <point x="1026" y="-263" type="curve" smooth="yes"/>
    </contour>
  </outline>
</glyph>
<glyph name="underscore" format="1">
  <advance width="949.0"/>
  <unicode hex="005F"/>
  <outline>
    <contour>
      <point x="0" y="-412" type="line"/>
      <point x="0" y="-224" type="line"/>
      <point x="949" y="-224" type="line"/>
      <point x="949" y="-412" type="line"/>
    </contour>
  </outline>
</glyph>
<glyph name="f" format="1">
  <advance width="848"/>
  <unicode hex="0066"/>
  <outline>
    <contour>
      <point x="470" y="0" type="line"/>
      <point x="228" y="0" type="line"/>
      <point x="228" y="862" type="line"/>
      <point x="32" y="862" type="line"/>
      <point x="32" y="1026" type="line"/>
      <point x="228" y="1026" type="line"/>
      <point x="228" y="1176" type="line" smooth="yes"/>
      <point x="228" y="1466"/>
      <point x="374" y="1560"/>
      <point x="687" y="1560" type="curve" smooth="yes"/>
      <point x="792" y="1560" type="line"/>
      <point x="792" y="1372" type="line"/>
      <point x="705" y="1372" type="line" smooth="yes"/>
      <point x="496" y="1372"/>
      <point x="470" y="1303"/>
      <point x="470" y="1141" type="curve" smooth="yes"/>
      <point x="470" y="1026" type="line"/>
      <point x="772" y="1026" type="line"/>
      <point x="772" y="862" type="line"/>
      <point x="470" y="862" type="line"/>
    </contour>
  </outline>
</glyph>
<glyph name="j" format="1">
  <advance width="665"/>
  <unicode hex="006A"/>
  <outline>
    <contour>
      <point x="382" y="1188" type="curve" smooth="yes"/>
      <point x="284" y="1188"/>
      <point x="221" y="1242"/>
      <point x="221" y="1334" type="curve" smooth="yes"/>
      <point x="221" y="1426"/>
      <point x="284" y="1480"/>
      <point x="384" y="1480" type="curve" smooth="yes"/>
      <point x="481" y="1480"/>
      <point x="545" y="1424"/>
      <point x="545" y="1333" type="curve" smooth="yes"/>
      <point x="545" y="1242"/>
      <point x="481" y="1188"/>
    </contour>
    <component base="dotlessj"/>
  </outline>
</glyph>
<glyph name="l" format="1">
  <advance width="647"/>
  <unicode hex="006C"/>
  <outline>
    <contour>
      <point x="138" y="323" type="line"/>
      <point x="138" y="1560" type="line"/>
      <point x="380" y="1560" type="line"/>
      <point x="380" y="358" type="line"/>
    </contour>
    <component base="lc_kick" xOffset="55"/>
  </outline>
</glyph>
<glyph name="braceleft" format="1">
  <advance width="793"/>
  <unicode hex="007B"/>
  <outline>
    <contour>
      <point x="747" y="-196" type="line"/>
      <point x="529" y="-196"/>
      <point x="306" y="-107"/>
      <point x="306" y="122" type="curve" smooth="yes"/>
      <point x="306" y="299" type="line" smooth="yes"/>
      <point x="306" y="473"/>
      <point x="281" y="569"/>
      <point x="121" y="586" type="curve"/>
      <point x="121" y="768" type="line"/>
      <point x="262" y="781"/>
      <point x="306" y="869"/>
      <point x="306" y="1024" type="curve" smooth="yes"/>
      <point x="306" y="1190" type="line" smooth="yes"/>
      <point x="306" y="1440"/>
      <point x="494" y="1552"/>
      <point x="747" y="1552" type="curve"/>
      <point x="747" y="1384" type="line"/>
      <point x="612" y="1384"/>
      <point x="556" y="1343"/>
      <point x="556" y="1207" type="curve" smooth="yes"/>
      <point x="556" y="998" type="line" smooth="yes"/>
      <point x="556" y="843"/>
      <point x="469" y="729"/>
      <point x="372" y="677" type="curve"/>
      <point x="480" y="626"/>
      <point x="556" y="513"/>
      <point x="556" y="360" type="curve" smooth="yes"/>
      <point x="556" y="203" type="line" smooth="yes"/>
      <point x="556" y="42"/>
      <point x="577" y="-28"/>
      <point x="747" y="-28" type="curve"/>
    </contour>
  </outline>
</glyph>
<glyph name="sterling" format="1">
  <advance width="1310"/>
  <unicode hex="00A3"/>
  <outline>
    <contour>
      <point x="208" y="0" type="line"/>
      <point x="206" y="142" type="line"/>
      <point x="312" y="204"/>
      <point x="367" y="316"/>
      <point x="367" y="540" type="curve" smooth="yes"/>
      <point x="367" y="655" type="line"/>
      <point x="180" y="655" type="line"/>
      <point x="180" y="830" type="line"/>
      <point x="367" y="830" type="line"/>
      <point x="367" y="909" type="line" smooth="yes"/>
      <point x="367" y="1266"/>
      <point x="472" y="1480"/>
      <point x="807" y="1480" type="curve" smooth="yes"/>
      <point x="941" y="1480"/>
      <point x="1051" y="1436"/>
      <point x="1131" y="1378" type="curve"/>
      <point x="1061" y="1200" type="line"/>
      <point x="991" y="1243"/>
      <point x="909" y="1272"/>
      <point x="836" y="1272" type="curve" smooth="yes"/>
      <point x="715" y="1272"/>
      <point x="615" y="1194"/>
      <point x="615" y="969" type="curve" smooth="yes"/>
      <point x="615" y="830" type="line"/>
      <point x="953" y="830" type="line"/>
      <point x="953" y="655" type="line"/>
      <point x="617" y="655" type="line"/>
      <point x="617" y="595" type="line" smooth="yes"/>
      <point x="617" y="406"/>
      <point x="573.887331758" y="255.175154242"/>
      <point x="487" y="207" type="curve"/>
      <point x="1106" y="207" type="line"/>
      <point x="1106" y="0" type="line"/>
    </contour>
  </outline>
</glyph>
<glyph name="logicalnot" format="1">
  <advance width="1535"/>
  <unicode hex="00AC"/>
  <outline>
    <contour>
      <point x="1168" y="409" type="line"/>
      <point x="1168" y="903" type="line"/>
      <point x="189" y="903" type="line"/>
      <point x="189" y="1067" type="line"/>
      <point x="1344" y="1067" type="line"/>
      <point x="1344" y="409" type="line"/>
    </contour>
  </outline>
</glyph>
<glyph name="plusminus" format="1">
  <advance width="1544"/>
  <unicode hex="00B1"/>
  <outline>
    <contour>
      <point x="190" y="60" type="line"/>
      <point x="190" y="223" type="line"/>
      <point x="1354" y="223" type="line"/>
      <point x="1354" y="60" type="line"/>
    </contour>
    <contour>
      <point x="686" y="382" type="line"/>
      <point x="686" y="819" type="line"/>
      <point x="190" y="819" type="line"/>
      <point x="190" y="981" type="line"/>
      <point x="684" y="981" type="line"/>
      <point x="684" y="1419" type="line"/>
      <point x="847" y="1419" type="line"/>
      <point x="847" y="981" type="line"/>
      <point x="1349" y="981" type="line"/>
      <point x="1349" y="819" type="line"/>
      <point x="852" y="819" type="line"/>
      <point x="852" y="382" type="line"/>
    </contour>
  </outline>
</glyph>
<glyph name="paragraph" format="1">
  <advance width="1275.0"/>
  <unicode hex="00B6"/>
  <outline>
    <contour>
      <point x="524" y="-139" type="line"/>
      <point x="524" y="628" type="line"/>
      <point x="256" y="628"/>
      <point x="95" y="781"/>
      <point x="95" y="1042" type="curve" smooth="yes"/>
      <point x="95" y="1404"/>
      <point x="402" y="1457"/>
      <point x="697" y="1457" type="curve" smooth="yes"/>
      <point x="1171" y="1457" type="line"/>
      <point x="1171" y="1311" type="line"/>
      <point x="1049" y="1311" type="line"/>
      <point x="1049" y="-139" type="line"/>
      <point x="897" y="-139" type="line"/>
      <point x="897" y="1311" type="line"/>
      <point x="676" y="1311" type="line"/>
      <point x="676" y="-139" type="line"/>
    </contour>
  </outline>
</glyph>
<glyph name="Thorn" format="1">
  <advance width="1367"/>
  <unicode hex="00DE"/>
  <outline>
    <contour>
      <point x="442" y="600" type="line"/>
      <point x="675" y="600" type="line" smooth="yes"/>
      <point x="896" y="600"/>
      <point x="1018" y="628"/>
      <point x="1018" y="802" type="curve" smooth="yes"/>
      <point x="1018" y="1022"/>
      <point x="878" y="1030"/>
      <point x="636" y="1030" type="curve" smooth="yes"/>
      <point x="442" y="1030" type="line"/>
    </contour>
    <contour>
      <point x="192" y="0" type="line"/>
      <point x="192" y="1456" type="line"/>
      <point x="442" y="1456" type="line"/>
      <point x="442" y="1220" type="line"/>
      <point x="632" y="1220" type="line" smooth="yes"/>
      <point x="990" y="1220"/>
      <point x="1253" y="1160"/>
      <point x="1253" y="805" type="curve" smooth="yes"/>
      <point x="1253" y="478"/>
      <point x="1012" y="406"/>
      <point x="677" y="406" type="curve" smooth="yes"/>
      <point x="442" y="406" type="line"/>
      <point x="442" y="0" type="line"/>
    </contour>
  </outline>
</glyph>
<glyph name="germandbls" format="1">
  <advance width="1234"/>
  <unicode hex="00DF"/>
  <outline>
    <contour>
      <point x="1181" y="321" type="curve" smooth="yes"/>
      <point x="1181" y="97"/>
      <point x="1007" y="-23"/>
      <point x="828" y="-23" type="curve" smooth="yes"/>
      <point x="721" y="-23"/>
      <point x="612" y="20"/>
      <point x="538" y="109" type="curve"/>
      <point x="575" y="263" type="line"/>
      <point x="639" y="193"/>
      <point x="723" y="159"/>
      <point x="797" y="159" type="curve" smooth="yes"/>
      <point x="890.696274647" y="159.0"/>
      <point x="962.0" y="222.643179035"/>
      <point x="962" y="319" type="curve" smooth="yes"/>
      <point x="962" y="467"/>
      <point x="826" y="573"/>
      <point x="607" y="711" type="curve" smooth="yes"/>
      <point x="580" y="728"/>
      <point x="563" y="763"/>
      <point x="563" y="800" type="curve" smooth="yes"/>
      <point x="563" y="836"/>
      <point x="580" y="874"/>
      <point x="622" y="897" type="curve" smooth="yes"/>
      <point x="724" y="954"/>
      <point x="805" y="977"/>
      <point x="805" y="1113" type="curve" smooth="yes"/>
      <point x="805" y="1228"/>
      <point x="735" y="1312"/>
      <point x="627" y="1312" type="curve" smooth="yes"/>
      <point x="506" y="1312"/>
      <point x="434" y="1220"/>
      <point x="434" y="1032" type="curve" smooth="yes"/>
      <point x="434" y="0" type="line"/>
      <point x="192" y="0" type="line"/>
      <point x="192" y="1044" type="line" smooth="yes"/>
      <point x="192" y="1324"/>
      <point x="389" y="1480"/>
      <point x="637" y="1480" type="curve" smooth="yes"/>
      <point x="908.406686902" y="1480.0"/>
      <point x="1045.0" y="1323.38938387"/>
      <point x="1045" y="1135" type="curve" smooth="yes"/>
      <point x="1045" y="960"/>
      <point x="950" y="882"/>
      <point x="810" y="820" type="curve" smooth="yes"/>
      <point x="796" y="814"/>
      <point x="787" y="794"/>
      <point x="812" y="779" type="curve" smooth="yes"/>
      <point x="1016" y="656"/>
      <point x="1181" y="574"/>
    </contour>
  </outline>
</glyph>
<glyph name="eth" format="1">
  <advance width="1210"/>
  <unicode hex="00F0"/>
  <outline>
    <contour>
      <point x="600" y="146" type="curve" smooth="yes"/>
      <point x="810.0" y="146.0"/>
      <point x="909" y="338.298701299"/>
      <point x="909" y="588" type="curve" smooth="yes"/>
      <point x="909" y="616" type="line"/>
      <point x="865.714568671" y="754.144993602"/>
      <point x="758.0" y="855.0"/>
      <point x="598" y="855" type="curve" smooth="yes"/>
      <point x="413.0" y="855.0"/>
      <point x="312.0" y="723.493261456"/>
      <point x="312" y="504" type="curve" smooth="yes"/>
      <point x="312.0" y="278.592592593"/>
      <point x="430.0" y="146.0"/>
    </contour>
    <contour>
      <point x="608" y="-40" type="curve" smooth="yes"/>
      <point x="271.706556192" y="-40.0"/>
      <point x="55.0" y="204.0"/>
      <point x="55" y="510" type="curve" smooth="yes"/>
      <point x="55.0" y="852.0"/>
      <point x="275.7602929" y="1040.0"/>
      <point x="569" y="1040" type="curve" smooth="yes"/>
      <point x="745.493670886" y="1040.0"/>
      <point x="847" y="994"/>
      <point x="934" y="896" type="curve"/>
      <point x="934" y="907" type="line" smooth="yes"/>
      <point x="934" y="1009"/>
      <point x="910.38743742" y="1094.39971501"/>
      <point x="887" y="1191" type="curve"/>
      <point x="649" y="1191" type="line"/>
      <point x="649" y="1352" type="line"/>
      <point x="828" y="1352" type="line"/>
      <point x="770.444282117" y="1467.11143577"/>
      <point x="688.013812614" y="1540.61180143"/>
      <point x="581" y="1607" type="curve"/>
      <point x="694" y="1746" type="line"/>
      <point x="863.768505011" y="1672.66804221"/>
      <point x="975.627623405" y="1534.84715675"/>
      <point x="1056" y="1352" type="curve"/>
      <point x="1277" y="1352" type="line"/>
      <point x="1277" y="1191" type="line"/>
      <point x="1117" y="1191" type="line"/>
      <point x="1152.61749071" y="1066.3387825"/>
      <point x="1173.0" y="931.0"/>
      <point x="1173" y="772" type="curve" smooth="yes"/>
      <point x="1173.0" y="298.0"/>
      <point x="985.548394117" y="-40.0"/>
    </contour>
  </outline>
</glyph>
<glyph name="divide" format="1">
  <advance width="1904.0"/>
  <unicode hex="00F7"/>
  <outline>
    <contour>
      <point x="830" y="-91" type="line"/>
      <point x="830" y="156" type="line"/>
      <point x="1059" y="156" type="line"/>
      <point x="1059" y="-91" type="line"/>
    </contour>
    <contour>
      <point x="359" y="453" type="line"/>
      <point x="359" y="617" type="line"/>
      <point x="1518" y="617" type="line"/>
      <point x="1518" y="453" type="line"/>
    </contour>
    <contour>
      <point x="830" y="909" type="line"/>
      <point x="830" y="1156" type="line"/>
      <point x="1059" y="1156" type="line"/>
      <point x="1059" y="909" type="line"/>
    </contour>
  </outline>
</glyph>
<glyph name="thorn" format="1">
  <advance width="1173"/>
  <unicode hex="00FE"/>
  <outline>
    <contour>
      <point x="138" y="323" type="line"/>
      <point x="138" y="1560" type="line"/>
      <point x="380" y="1560" type="line"/>
      <point x="380" y="358" type="line"/>
    </contour>
    <contour>
      <point x="138" y="-574" type="line"/>
      <point x="138" y="369" type="line"/>
      <point x="364" y="895" type="line"/>
      <point x="422" y="1002"/>
      <point x="514" y="1048"/>
      <point x="655" y="1048" type="curve" smooth="yes"/>
      <point x="829" y="1048"/>
      <point x="1073" y="936"/>
      <point x="1073" y="557" type="curve" smooth="yes"/>
      <point x="1073" y="204"/>
      <point x="875" y="-22"/>
      <point x="554" y="-22" type="curve" smooth="yes"/>
      <point x="490" y="-22"/>
      <point x="431" y="-11"/>
      <point x="380" y="2" type="curve"/>
      <point x="380" y="-574" type="line"/>
    </contour>
    <contour>
      <point x="380" y="179" type="line"/>
      <point x="417" y="171"/>
      <point x="468" y="164"/>
      <point x="518" y="164" type="curve" smooth="yes"/>
      <point x="725" y="164"/>
      <point x="829" y="305"/>
      <point x="829" y="555" type="curve" smooth="yes"/>
      <point x="829" y="750"/>
      <point x="748" y="862"/>
      <point x="618" y="862" type="curve" smooth="yes"/>
      <point x="487" y="862"/>
      <point x="380" y="759"/>
      <point x="380" y="520" type="curve" smooth="yes"/>
    </contour>
  </outline>
</glyph>
<glyph name="IJ" format="1">
  <advance width="1614"/>
  <unicode hex="0132"/>
  <outline>
    <contour>
      <point x="602" y="0" type="line"/>
      <point x="352" y="0" type="line"/>
      <point x="352" y="1560" type="line"/>
      <point x="602" y="1560" type="line"/>
    </contour>
    <contour>
      <point x="689" y="106" type="curve"/>
      <point x="807" y="271" type="line"/>
      <point x="861.790114752" y="208.505025361"/>
      <point x="928.68" y="184"/>
      <point x="987" y="184" type="curve" smooth="yes"/>
      <point x="997" y="184" type="line" smooth="yes"/>
      <point x="1088.62430054" y="184"/>
      <point x="1160" y="268.0"/>
      <point x="1160" y="428" type="curve" smooth="yes"/>
      <point x="1160" y="1378" type="line"/>
      <point x="776" y="1378" type="line"/>
      <point x="776" y="1560" type="line"/>
      <point x="1403" y="1560" type="line"/>
      <point x="1403" y="447" type="line" smooth="yes"/>
      <point x="1403" y="125.0"/>
      <point x="1216.20745921" y="-24.0"/>
      <point x="1014" y="-24" type="curve" smooth="yes"/>
      <point x="886.468354431" y="-24.0"/>
      <point x="775.738135465" y="7.51607535746"/>
    </contour>
  </outline>
</glyph>
<glyph name="kgreenlandic" format="1">
  <advance width="1127"/>
  <unicode hex="0138"/>
  <outline>
    <contour>
      <point x="382" y="0" type="line"/>
      <point x="382" y="482" type="line"/>
      <point x="833" y="0" type="line"/>
      <point x="1107" y="0" type="line"/>
      <point x="618" y="536" type="line"/>
      <point x="1095" y="1026" type="line"/>
      <point x="811" y="1026" type="line"/>
      <point x="382" y="588" type="line"/>
      <point x="382" y="615" type="line" smooth="yes"/>
      <point x="382" y="760"/>
      <point x="371" y="876"/>
      <point x="353" y="1026" type="curve"/>
      <point x="105" y="1026" type="line"/>
      <point x="105" y="1026"/>
      <point x="140" y="834"/>
      <point x="140" y="524" type="curve"/>
      <point x="140" y="0" type="line"/>
    </contour>
  </outline>
</glyph>
<glyph name="OE" format="1">
  <advance width="2006"/>
  <unicode hex="0152"/>
  <outline>
    <contour>
      <point x="1028" y="0" type="line"/>
      <point x="975" y="-12"/>
      <point x="893.0" y="-24.0"/>
      <point x="834.0" y="-24.0" type="curve" smooth="yes"/>
      <point x="407.0" y="-24.0"/>
      <point x="116.0" y="307.0"/>
      <point x="116.0" y="780.0" type="curve" smooth="yes"/>
      <point x="116.0" y="1248.0"/>
      <point x="405.0" y="1584.0"/>
      <point x="834.0" y="1584.0" type="curve" smooth="yes"/>
      <point x="895.0" y="1584.0"/>
      <point x="974" y="1572"/>
      <point x="1028" y="1560" type="curve"/>
      <point x="1028" y="1334" type="line"/>
      <point x="973" y="1360"/>
      <point x="893.0" y="1377.0"/>
      <point x="834.0" y="1377.0" type="curve" smooth="yes"/>
      <point x="606.0" y="1377.0"/>
      <point x="375.0" y="1188.0"/>
      <point x="375.0" y="778.0" type="curve" smooth="yes"/>
      <point x="375.0" y="373.0"/>
      <point x="606.0" y="186.0"/>
      <point x="834.0" y="186.0" type="curve" smooth="yes"/>
      <point x="891.0" y="186.0"/>
      <point x="974" y="204"/>
      <point x="1028" y="227" type="curve"/>
    </contour>
    <component base="E" xOffset="850"/>
  </outline>
</glyph>
<glyph name="oe" format="1">
  <advance width="1818"/>
  <unicode hex="0153"/>
  <outline>
    <contour>
      <point x="603" y="-22" type="curve" smooth="yes"/>
      <point x="298" y="-22"/>
      <point x="102" y="195"/>
      <point x="102" y="512" type="curve" smooth="yes"/>
      <point x="102" y="830"/>
      <point x="297" y="1048"/>
      <point x="602" y="1048" type="curve" smooth="yes"/>
      <point x="892.679841897" y="1048.0"/>
      <point x="1078.0" y="832.0"/>
      <point x="1078" y="513" type="curve" smooth="yes"/>
      <point x="1078.0" y="196.0"/>
      <point x="894.584158416" y="-22.0"/>
    </contour>
    <contour>
      <point x="605" y="164" type="curve" smooth="yes"/>
      <point x="775" y="164"/>
      <point x="860" y="299"/>
      <point x="860" y="512" type="curve" smooth="yes"/>
      <point x="860" y="725"/>
      <point x="774" y="862"/>
      <point x="603" y="862" type="curve" smooth="yes"/>
      <point x="432" y="862"/>
      <point x="350" y="725"/>
      <point x="350" y="512" type="curve" smooth="yes"/>
      <point x="350" y="299"/>
      <point x="433" y="164"/>
    </contour>
    <contour>
      <point x="1669" y="266" type="curve"/>
      <point x="1749" y="113" type="line"/>
      <point x="1638" y="16"/>
      <point x="1469" y="-22"/>
      <point x="1343" y="-22" type="curve" smooth="yes"/>
      <point x="1073" y="-22"/>
      <point x="870" y="178"/>
      <point x="870" y="519" type="curve" smooth="yes"/>
      <point x="870" y="821"/>
      <point x="1058" y="1048"/>
      <point x="1334" y="1048" type="curve" smooth="yes"/>
      <point x="1559" y="1048"/>
      <point x="1682" y="897"/>
      <point x="1682" y="750" type="curve" smooth="yes"/>
      <point x="1682" y="566"/>
      <point x="1548" y="415"/>
      <point x="1095" y="371" type="curve"/>
      <point x="1134" y="226"/>
      <point x="1237" y="164"/>
      <point x="1363" y="164" type="curve" smooth="yes"/>
      <point x="1458" y="164"/>
      <point x="1563" y="191"/>
    </contour>
    <contour>
      <point x="1466" y="742" type="curve" smooth="yes"/>
      <point x="1466" y="818"/>
      <point x="1413" y="867"/>
      <point x="1331" y="867" type="curve" smooth="yes"/>
      <point x="1178" y="867"/>
      <point x="1078" y="723"/>
      <point x="1078" y="523" type="curve"/>
      <point x="1365" y="565"/>
      <point x="1466" y="637"/>
    </contour>
  </outline>
</glyph>
<glyph name="dotlessj" format="1">
  <advance width="665"/>
  <unicode hex="0237"/>
  <outline>
    <contour>
      <point x="122" y="-499" type="curve" smooth="yes"/>
      <point x="19" y="-499"/>
      <point x="-54" y="-475"/>
      <point x="-54" y="-475" type="curve"/>
      <point x="-33" y="-305" type="line"/>
      <point x="-33" y="-305"/>
      <point x="32" y="-323"/>
      <point x="100" y="-323" type="curve" smooth="yes"/>
      <point x="198" y="-323"/>
      <point x="250" y="-280"/>
      <point x="250" y="-90" type="curve" smooth="yes"/>
      <point x="250" y="1026" type="line"/>
      <point x="492" y="1026" type="line"/>
      <point x="492" y="-93" type="line" smooth="yes"/>
      <point x="492" y="-325"/>
      <point x="428" y="-499"/>
    </contour>
  </outline>
</glyph>
<glyph name="circumflex" format="1">
  <advance width="1004"/>
  <unicode hex="02C6"/>
  <outline>
    <contour>
      <point x="414" y="1509" type="line"/>
      <point x="580" y="1509" type="line"/>
      <point x="868" y="1128" type="line"/>
      <point x="642" y="1128" type="line"/>
      <point x="497" y="1312" type="line"/>
      <point x="345" y="1128" type="line"/>
      <point x="127" y="1128" type="line"/>
    </contour>
  </outline>
</glyph>
<glyph name="breve" format="1">
  <advance width="957"/>
  <unicode hex="02D8"/>
  <outline>
    <contour>
      <point x="470" y="1153" type="curve" smooth="yes"/>
      <point x="275" y="1153"/>
      <point x="157" y="1243"/>
      <point x="142" y="1431" type="curve"/>
      <point x="244" y="1431" type="line"/>
      <point x="261" y="1328"/>
      <point x="347" y="1279"/>
      <point x="462" y="1279" type="curve" smooth="yes"/>
      <point x="577" y="1279"/>
      <point x="669" y="1332"/>
      <point x="692" y="1431" type="curve"/>
      <point x="794" y="1431" type="line"/>
      <point x="779" y="1250"/>
      <point x="660" y="1153"/>
    </contour>
  </outline>
</glyph>
<glyph name="hungarumlaut" format="1">
  <advance width="910"/>
  <unicode hex="02DD"/>
  <outline>
    <contour>
      <point x="430" y="1164" type="line"/>
      <point x="667" y="1532" type="line"/>
      <point x="874" y="1532" type="line"/>
      <point x="558" y="1164" type="line"/>
    </contour>
    <contour>
      <point x="124" y="1164" type="line"/>
      <point x="377" y="1532" type="line"/>
      <point x="564" y="1532" type="line"/>
      <point x="262" y="1164" type="line"/>
    </contour>
  </outline>
</glyph>
<glyph name="gravecomb" format="1">
  <advance width="1054"/>
  <unicode hex="0300"/>
  <outline>
    <contour>
      <point x="520" y="1182" type="line"/>
      <point x="210" y="1520" type="line"/>
      <point x="483" y="1520" type="line"/>
      <point x="729" y="1182" type="line"/>
    </contour>
  </outline>
</glyph>
<glyph name="acutecomb" format="1">
  <advance width="1078"/>
  <unicode hex="0301"/>
  <outline>
    <contour>
      <point x="509" y="1182" type="line"/>
      <point x="300" y="1182" type="line"/>
      <point x="546" y="1520" type="line"/>
      <point x="819" y="1520" type="line"/>
    </contour>
  </outline>
</glyph>
<glyph name="Delta" format="1">
  <advance width="1381"/>
  <unicode hex="0394"/>
  <outline>
    <contour>
      <point x="689" y="1211" type="curve"/>
      <point x="643" y="1059"/>
      <point x="596" y="897"/>
      <point x="488" y="557" type="curve" smooth="yes"/>
      <point x="311" y="0" type="line"/>
      <point x="37" y="0" type="line"/>
      <point x="575" y="1560" type="line"/>
      <point x="815" y="1560" type="line"/>
      <point x="1344" y="0" type="line"/>
      <point x="1059" y="0" type="line"/>
      <point x="888" y="557" type="line" smooth="yes"/>
      <point x="782" y="904"/>
      <point x="735" y="1057"/>
    </contour>
    <contour>
      <point x="193" y="225" type="line"/>
      <point x="1212" y="225" type="line"/>
      <point x="1212" y="0" type="line"/>
      <point x="193" y="0" type="line"/>
    </contour>
  </outline>
</glyph>
<glyph name="uni03A9" format="1">
  <advance width="1781.0"/>
  <unicode hex="03A9"/>
  <outline>
    <contour>
      <point x="206" y="0" type="line"/>
      <point x="193" y="213" type="line"/>
      <point x="509" y="211" type="line"/>
      <point x="344" y="346"/>
      <point x="198" y="545"/>
      <point x="198" y="811" type="curve" smooth="yes"/>
      <point x="198" y="1233"/>
      <point x="470" y="1482"/>
      <point x="905" y="1482" type="curve" smooth="yes"/>
      <point x="1337" y="1482"/>
      <point x="1588" y="1217"/>
      <point x="1588" y="806" type="curve" smooth="yes"/>
      <point x="1588" y="520"/>
      <point x="1425" y="345"/>
      <point x="1272" y="211" type="curve"/>
      <point x="1571" y="213" type="line"/>
      <point x="1560" y="0" type="line"/>
      <point x="989" y="0" type="line"/>
      <point x="984" y="242" type="line"/>
      <point x="1161" y="372"/>
      <point x="1320" y="552"/>
      <point x="1320" y="785" type="curve" smooth="yes"/>
      <point x="1320" y="1069"/>
      <point x="1162" y="1247"/>
      <point x="900" y="1247" type="curve" smooth="yes"/>
      <point x="612" y="1247"/>
      <point x="468" y="1042"/>
      <point x="468" y="791" type="curve" smooth="yes"/>
      <point x="468" y="521"/>
      <point x="628" y="366"/>
      <point x="798" y="242" type="curve"/>
      <point x="802" y="0" type="line"/>
    </contour>
  </outline>
</glyph>
<glyph name="uni03BC" format="1">
  <advance width="1239"/>
  <unicode hex="03BC"/>
  <outline>
    <contour>
      <point x="541" y="-22" type="curve" smooth="yes"/>
      <point x="485.070351759" y="-22.0"/>
      <point x="431.232056506" y="-5.5545927734"/>
      <point x="382" y="23" type="curve"/>
      <point x="382" y="-202" type="line"/>
      <point x="167" y="-202" type="line"/>
      <point x="165" y="582" type="line" smooth="yes"/>
      <point x="165" y="602"/>
      <point x="166" y="621"/>
      <point x="166" y="639" type="curve" smooth="yes"/>
      <point x="166" y="780"/>
      <point x="147" y="932"/>
      <point x="106" y="1000" type="curve"/>
      <point x="331" y="1041" type="line"/>
      <point x="363" y="969"/>
      <point x="391" y="833"/>
      <point x="391" y="656" type="curve" smooth="yes"/>
      <point x="391" y="636"/>
      <point x="391" y="616"/>
      <point x="390" y="595" type="curve" smooth="yes"/>
      <point x="384" y="435" type="line" smooth="yes"/>
      <point x="384" y="422" type="line" smooth="yes"/>
      <point x="384" y="235"/>
      <point x="469" y="184"/>
      <point x="561" y="184" type="curve" smooth="yes"/>
      <point x="704.073089701" y="184.0"/>
      <point x="822" y="329.0"/>
      <point x="822" y="552" type="curve" smooth="yes"/>
      <point x="822" y="1026" type="line"/>
      <point x="1046" y="1026" type="line"/>
      <point x="1046" y="358" type="line" smooth="yes"/>
      <point x="1046" y="239.759124088"/>
      <point x="1063.28" y="191.0"/>
      <point x="1181" y="191" type="curve"/>
      <point x="1142" y="-14" type="line"/>
      <point x="989.252873563" y="-14.0"/>
      <point x="877.966982693" y="25.0419744198"/>
      <point x="851" y="141" type="curve"/>
      <point x="783.770138408" y="29.8466288347"/>
      <point x="679.588235294" y="-22.0"/>
    </contour>
  </outline>
</glyph>
<glyph name="pi" format="1">
  <advance width="1278"/>
  <unicode hex="03C0"/>
  <outline>
    <contour>
      <point x="1052" y="-22" type="curve" smooth="yes"/>
      <point x="846.047619048" y="-22.0"/>
      <point x="802" y="90"/>
      <point x="802" y="265" type="curve" smooth="yes"/>
      <point x="802" y="823" type="line"/>
      <point x="567" y="823" type="line"/>
      <point x="567.0" y="569.556550952"/>
      <point x="477.61925373" y="151.583694028"/>
      <point x="391" y="0" type="curve"/>
      <point x="150" y="0" type="line"/>
      <point x="265.793496785" y="203.344677281"/>
      <point x="355.0" y="603.656215006"/>
      <point x="355" y="823" type="curve"/>
      <point x="268" y="823"/>
      <point x="172" y="782"/>
      <point x="107" y="712" type="curve"/>
      <point x="77" y="933" type="line"/>
      <point x="157.468303248" y="994.115167024"/>
      <point x="283.860058309" y="1026"/>
      <point x="430" y="1026" type="curve" smooth="yes"/>
      <point x="1205" y="1026" type="line"/>
      <point x="1205" y="823" type="line"/>
      <point x="1021" y="823" type="line"/>
      <point x="1021" y="312" type="line" smooth="yes"/>
      <point x="1021" y="230"/>
      <point x="1032" y="171"/>
      <point x="1099" y="171" type="curve" smooth="yes"/>
      <point x="1124" y="171"/>
      <point x="1150" y="175"/>
      <point x="1179" y="184" type="curve"/>
      <point x="1189" y="-8" type="line"/>
      <point x="1144" y="-16"/>
      <point x="1099" y="-22"/>
    </contour>
  </outline>
</glyph>
<glyph name="emdash" format="1">
  <advance width="2500.0"/>
  <unicode hex="2014"/>
  <outline>
    <contour>
      <point x="80" y="606" type="line"/>
      <point x="80" y="767" type="line"/>
      <point x="2420" y="767" type="line"/>
      <point x="2420" y="606" type="line"/>
    </contour>
  </outline>
</glyph>
<glyph name="quoteleft" format="1">
  <advance width="574.0"/>
  <unicode hex="2018"/>
  <outline>
    <contour>
      <point x="455" y="1456" type="line"/>
      <point x="363" y="939" type="line"/>
      <point x="119" y="939" type="line"/>
      <point x="300" y="1456" type="line"/>
    </contour>
  </outline>
</glyph>
<glyph name="quoteright" format="1">
  <advance width="574.0"/>
  <unicode hex="2019"/>
  <outline>
    <contour>
      <point x="157" y="939" type="line"/>
      <point x="250" y="1456" type="line"/>
      <point x="492" y="1456" type="line"/>
      <point x="312" y="939" type="line"/>
    </contour>
  </outline>
</glyph>
<glyph name="quotesinglbase" format="1">
  <advance width="815.0"/>
  <unicode hex="201A"/>
  <outline>
    <contour>
      <point x="219" y="-419" type="line"/>
      <point x="354" y="96" type="line"/>
      <point x="566" y="96" type="line"/>
      <point x="375" y="-419" type="line"/>
    </contour>
  </outline>
</glyph>
<glyph name="quotedblleft" format="1">
  <advance width="959.0"/>
  <unicode hex="201C"/>
  <outline>
    <contour>
      <point x="512" y="963" type="line"/>
      <point x="684" y="1480" type="line"/>
      <point x="840" y="1480" type="line"/>
      <point x="738" y="963" type="line"/>
    </contour>
    <contour>
      <point x="119" y="963" type="line"/>
      <point x="299" y="1480" type="line"/>
      <point x="446" y="1480" type="line"/>
      <point x="352" y="963" type="line"/>
    </contour>
  </outline>
</glyph>
<glyph name="quotedblright" format="1">
  <advance width="1175.0"/>
  <unicode hex="201D"/>
  <outline>
    <contour>
      <point x="625" y="937" type="line"/>
      <point x="740" y="1454" type="line"/>
      <point x="953" y="1454" type="line"/>
      <point x="773" y="937" type="line"/>
    </contour>
    <contour>
      <point x="255" y="937" type="line"/>
      <point x="377" y="1454" type="line"/>
      <point x="583" y="1454" type="line"/>
      <point x="411" y="937" type="line"/>
    </contour>
  </outline>
</glyph>
<glyph name="perthousand" format="1">
  <advance width="2997.0"/>
  <unicode hex="2030"/>
  <outline>
    <contour>
      <point x="494" y="0" type="line"/>
      <point x="1466" y="1470" type="line"/>
      <point x="1668" y="1470" type="line"/>
      <point x="705" y="0" type="line"/>
    </contour>
    <contour>
      <point x="1725" y="-22" type="curve" smooth="yes"/>
      <point x="1447" y="-22"/>
      <point x="1311" y="183"/>
      <point x="1311" y="422" type="curve" smooth="yes"/>
      <point x="1311" y="703"/>
      <point x="1467" y="872"/>
      <point x="1681" y="872" type="curve" smooth="yes"/>
      <point x="1916" y="872"/>
      <point x="2043" y="692"/>
      <point x="2043" y="427" type="curve" smooth="yes"/>
      <point x="2043" y="147"/>
      <point x="1909" y="-22"/>
    </contour>
    <contour>
      <point x="1683" y="134" type="curve" smooth="yes"/>
      <point x="1803" y="134"/>
      <point x="1857" y="269"/>
      <point x="1857" y="428" type="curve" smooth="yes"/>
      <point x="1857" y="600"/>
      <point x="1796" y="717"/>
      <point x="1684" y="717" type="curve" smooth="yes"/>
      <point x="1561" y="717"/>
      <point x="1507" y="584"/>
      <point x="1507" y="424" type="curve" smooth="yes"/>
      <point x="1507" y="263"/>
      <point x="1560" y="134"/>
    </contour>
    <contour>
      <point x="457" y="737" type="curve" smooth="yes"/>
      <point x="577.401785714" y="737.0"/>
      <point x="631.0" y="872.0"/>
      <point x="631" y="1031" type="curve" smooth="yes"/>
      <point x="631.0" y="1203.0"/>
      <point x="570.488789238" y="1320.0"/>
      <point x="458" y="1320" type="curve" smooth="yes"/>
      <point x="334.801762115" y="1320.0"/>
      <point x="281.0" y="1187.0"/>
      <point x="281" y="1027" type="curve" smooth="yes"/>
      <point x="281.0" y="866.0"/>
      <point x="333.955752212" y="737.0"/>
    </contour>
    <contour>
      <point x="449" y="581" type="curve" smooth="yes"/>
      <point x="204.574879227" y="581.0"/>
      <point x="85.0" y="786.0"/>
      <point x="85" y="1025" type="curve" smooth="yes"/>
      <point x="85.0" y="1306.0"/>
      <point x="240.928571429" y="1475.0"/>
      <point x="455" y="1475" type="curve" smooth="yes"/>
      <point x="689.597087379" y="1475.0"/>
      <point x="817.0" y="1295.0"/>
      <point x="817" y="1030" type="curve" smooth="yes"/>
      <point x="817.0" y="750.0"/>
      <point x="662.052631579" y="581.0"/>
    </contour>
    <contour>
      <point x="2545" y="-22" type="curve" smooth="yes"/>
      <point x="2301" y="-22"/>
      <point x="2181" y="183"/>
      <point x="2181" y="422" type="curve" smooth="yes"/>
      <point x="2181" y="703"/>
      <point x="2337" y="872"/>
      <point x="2551" y="872" type="curve" smooth="yes"/>
      <point x="2786" y="872"/>
      <point x="2913" y="692"/>
      <point x="2913" y="427" type="curve" smooth="yes"/>
      <point x="2913" y="147"/>
      <point x="2758" y="-22"/>
    </contour>
    <contour>
      <point x="2553" y="134" type="curve" smooth="yes"/>
      <point x="2673" y="134"/>
      <point x="2727" y="269"/>
      <point x="2727" y="428" type="curve" smooth="yes"/>
      <point x="2727" y="600"/>
      <point x="2666" y="717"/>
      <point x="2554" y="717" type="curve" smooth="yes"/>
      <point x="2431" y="717"/>
      <point x="2377" y="584"/>
      <point x="2377" y="424" type="curve" smooth="yes"/>
      <point x="2377" y="263"/>
      <point x="2430" y="134"/>
    </contour>
  </outline>
</glyph>
<glyph name="product" format="1">
  <advance width="1549"/>
  <unicode hex="220F"/>
  <outline>
    <contour>
      <point x="301" y="0" type="line"/>
      <point x="301" y="1311" type="line"/>
      <point x="100" y="1311" type="line"/>
      <point x="100" y="1456" type="line"/>
      <point x="1449" y="1456" type="line"/>
      <point x="1449" y="1311" type="line"/>
      <point x="1270" y="1311" type="line"/>
      <point x="1270" y="0" type="line"/>
      <point x="1092" y="0" type="line"/>
      <point x="1092" y="1311" type="line"/>
      <point x="476" y="1311" type="line"/>
      <point x="476" y="0" type="line"/>
    </contour>
  </outline>
</glyph>
<glyph name="minus" format="1">
  <advance width="1426"/>
  <unicode hex="2212"/>
  <outline>
    <contour>
      <point x="188" y="446" type="line"/>
      <point x="188" y="630" type="line"/>
      <point x="1238" y="630" type="line"/>
      <point x="1238" y="446" type="line"/>
    </contour>
  </outline>
</glyph>
<glyph name="approxequal" format="1">
  <advance width="1696.0"/>
  <unicode hex="2248"/>
  <outline>
    <contour>
      <point x="412" y="818" type="curve"/>
      <point x="277" y="850" type="line"/>
      <point x="316" y="1023"/>
      <point x="425" y="1150"/>
      <point x="606" y="1150" type="curve" smooth="yes"/>
      <point x="762" y="1150"/>
      <point x="879" y="1032"/>
      <point x="993" y="980" type="curve" smooth="yes"/>
      <point x="1027" y="965"/>
      <point x="1057" y="956"/>
      <point x="1086" y="956" type="curve" smooth="yes"/>
      <point x="1193" y="956"/>
      <point x="1238" y="1051"/>
      <point x="1270" y="1152" type="curve"/>
      <point x="1399" y="1119" type="line"/>
      <point x="1363" y="949"/>
      <point x="1262" y="818"/>
      <point x="1079" y="818" type="curve" smooth="yes"/>
      <point x="994" y="818"/>
      <point x="936" y="848"/>
      <point x="876" y="882" type="curve" smooth="yes"/>
      <point x="822" y="912"/>
      <point x="749" y="962"/>
      <point x="694" y="989" type="curve" smooth="yes"/>
      <point x="663" y="1004"/>
      <point x="633" y="1011"/>
      <point x="602" y="1011" type="curve" smooth="yes"/>
      <point x="490" y="1011"/>
      <point x="440" y="920"/>
    </contour>
    <contour>
      <point x="414" y="380" type="curve"/>
      <point x="280" y="413" type="line"/>
      <point x="321" y="582"/>
      <point x="429" y="715"/>
      <point x="609" y="715" type="curve" smooth="yes"/>
      <point x="712" y="715"/>
      <point x="803" y="661"/>
      <point x="874" y="617" type="curve"/>
      <point x="915" y="593"/>
      <point x="953" y="571"/>
      <point x="989" y="550" type="curve"/>
      <point x="1025" y="531"/>
      <point x="1057" y="519"/>
      <point x="1088" y="519" type="curve" smooth="yes"/>
      <point x="1194" y="519"/>
      <point x="1240" y="617"/>
      <point x="1272" y="715" type="curve"/>
      <point x="1401" y="682" type="line"/>
      <point x="1362" y="513"/>
      <point x="1266" y="381"/>
      <point x="1082" y="381" type="curve" smooth="yes"/>
      <point x="998" y="381"/>
      <point x="937" y="412"/>
      <point x="879" y="445" type="curve" smooth="yes"/>
      <point x="827" y="475"/>
      <point x="752" y="525"/>
      <point x="698" y="551" type="curve" smooth="yes"/>
      <point x="666" y="566"/>
      <point x="636" y="574"/>
      <point x="606" y="574" type="curve" smooth="yes"/>
      <point x="492" y="574"/>
      <point x="441" y="483"/>
    </contour>
  </outline>
</glyph>
<glyph name="notequal" format="1">
  <advance width="1718.0"/>
  <unicode hex="2260"/>
  <outline>
    <contour>
      <point x="630" y="71" type="line"/>
      <point x="498" y="92" type="line"/>
      <point x="636" y="398" type="line"/>
      <point x="303" y="398" type="line"/>
      <point x="303" y="540" type="line"/>
      <point x="702" y="540" type="line"/>
      <point x="858" y="872" type="line"/>
      <point x="303" y="872" type="line"/>
      <point x="303" y="1014" type="line"/>
      <point x="918" y="1014" type="line"/>
      <point x="1062" y="1336" type="line"/>
      <point x="1196" y="1314" type="line"/>
      <point x="1060" y="1014" type="line"/>
      <point x="1423" y="1014" type="line"/>
      <point x="1423" y="872" type="line"/>
      <point x="998" y="872" type="line"/>
      <point x="841" y="540" type="line"/>
      <point x="1423" y="540" type="line"/>
      <point x="1423" y="398" type="line"/>
      <point x="780" y="398" type="line"/>
    </contour>
  </outline>
</glyph>
<glyph name="lessequal" format="1">
  <advance width="1720.0"/>
  <unicode hex="2264"/>
  <outline>
    <contour>
      <point x="294" y="115" type="line"/>
      <point x="294" y="259" type="line"/>
      <point x="1416" y="259" type="line"/>
      <point x="1416" y="115" type="line"/>
    </contour>
    <contour>
      <point x="1382" y="359" type="line"/>
      <point x="336" y="887" type="line"/>
      <point x="336" y="982" type="line"/>
      <point x="1382" y="1537" type="line"/>
      <point x="1382" y="1372" type="line"/>
      <point x="541" y="938" type="line"/>
      <point x="1382" y="524" type="line"/>
    </contour>
  </outline>
</glyph>
